SplineFontDB: 3.2
FontName: AncientRunes
FullName: Ancient Runes
FamilyName: Ancient Runes
Weight: Regular
Copyright: All Characters are the property of inkle Ltd.
UComments: "2021-5-2: Created with FontForge (http://fontforge.org)"
FontLog: "2.0 Version by SkepticMech+AAoA-Initial Version?+AAoACgAA-3.0 Version by D0SBoots+AAoA-Redo all glyph outlines from scratch (using game images +- potrace)+AAoA-Remove non-Ancient characters+AAoA-Use references to reduce size+AAoA-Fix inter-glyph spacing, phrases match in-game text to sub-pixel accuracy"
Version: 003.000
ItalicAngle: 0
UnderlinePosition: -102
UnderlineWidth: 51
Ascent: 899
Descent: 125
InvalidEm: 0
sfntRevision: 0x00030000
LayerCount: 2
Layer: 0 0 "Back" 1
Layer: 1 0 "Fore" 0
XUID: [1021 482 -965250730 13885]
FSType: 0
OS2Version: 0
OS2_WeightWidthSlopeOnly: 0
OS2_UseTypoMetrics: 1
CreationTime: 1620024929
ModificationTime: 1620779379
PfmFamily: 65
TTFWeight: 400
TTFWidth: 5
LineGap: 94
VLineGap: 0
OS2TypoAscent: 0
OS2TypoAOffset: 1
OS2TypoDescent: 0
OS2TypoDOffset: 1
OS2TypoLinegap: 94
OS2WinAscent: 0
OS2WinAOffset: 1
OS2WinDescent: 0
OS2WinDOffset: 1
HheadAscent: 0
HheadAOffset: 1
HheadDescent: 0
HheadDOffset: 1
OS2Vendor: 'PfEd'
MarkAttachClasses: 1
DEI: 91125
LangName: 1033
Encoding: Original
UnicodeInterp: none
NameList: AGL For New Fonts
DisplaySize: -48
AntiAlias: 1
FitToEm: 0
WinInfo: 0 22 5
BeginPrivate: 0
EndPrivate
BeginChars: 103 103

StartChar: .notdef
Encoding: 0 -1 0
Width: 588
Flags: HMW
LayerCount: 2
Fore
SplineSet
324 812 m 0
 334 808 345 806 356 800 c 0
 383 784 400 757 407 721 c 0
 409 708 411 696 411 685 c 0
 411 627 382 586 356 548 c 0
 343 529 313 486 308 477 c 0
 290 445 276 412 276 364 c 0
 276 325 283 242 311 242 c 0
 314 242 317 243 320 245 c 0
 330 251 334 256 334 276 c 0
 334 285 334 290 333 295 c 0
 330 305 326 324 327 326 c 0
 328 328 329 329 330 329 c 0
 336 329 349 306 351 300 c 0
 359 282 361 273 361 258 c 0
 361 255 361 252 361 249 c 0
 359 220 349 205 326 199 c 0
 321 198 317 197 313 197 c 0
 265 197 250 269 244 298 c 0
 240 316 239 337 239 357 c 0
 239 385 242 412 247 431 c 0
 257 467 273 501 295 535 c 0
 338 602 349 623 356 660 c 0
 357 668 358 676 358 683 c 0
 358 716 344 740 320 749 c 0
 308 752 303 753 293 750 c 0
 278 745 269 738 256 722 c 0
 252 717 247 710 245 706 c 0
 234 687 224 675 212 670 c 0
 207 667 204 666 198 666 c 0
 193 667 190 667 185 670 c 0
 176 675 170 682 170 694 c 0
 170 699 171 705 174 712 c 0
 187 744 223 784 248 800 c 0
 256 805 274 813 279 814 c 0
 282 814 287 815 293 815 c 0
 304 815 318 814 324 812 c 0
305 152 m 0
 328 148 332 147 339 139 c 0
 345 133 348 126 348 119 c 0
 348 104 336 89 319 88 c 0
 313 88 311 88 306 90 c 0
 293 97 272 114 272 134 c 0
 272 140 273 141 276 144 c 0
 281 150 295 154 305 152 c 0
519 59 m 1
 519 846 l 1
 69 846 l 1
 69 59 l 1
 519 59 l 1
30 18 m 1
 30 887 l 1
 558 887 l 1
 558 18 l 1
 30 18 l 1
EndSplineSet
Validated: 1
EndChar

StartChar: quotedbl
Encoding: 2 34 2
Width: 348
Flags: HMW
LayerCount: 2
Fore
SplineSet
252 271 m 0
 257 280 267 288 279 288 c 0
 283 288 286 288 290 286 c 0
 307 280 313 267 321 218 c 0
 322 212 322 203 322 192 c 0
 322 175 321 156 320 149 c 0
 316 129 313 115 303 94 c 0
 282 51 228 7 172 -10 c 0
 157 -14 136 -21 120 -21 c 0
 113 -21 102 -19 106 -12 c 0
 107 -8 114 -3 130 6 c 0
 164 27 194 47 219 70 c 0
 247 97 269 134 269 179 c 0
 269 184 269 190 268 195 c 0
 265 215 261 230 253 246 c 0
 250 252 250 266 252 271 c 0
162 262 m 0
 162 263 162 263 162 264 c 0
 162 278 175 287 189 287 c 0
 195 287 201 285 207 282 c 0
 224 271 228 244 233 223 c 0
 235 214 237 197 237 182 c 0
 237 176 237 170 236 166 c 0
 232 127 213 95 179 72 c 0
 154 55 133 45 101 37 c 0
 89 34 68 31 53 31 c 0
 43 31 35 32 35 37 c 0
 35 38 35 39 36 40 c 0
 37 42 96 72 98 73 c 0
 117 84 129 92 138 100 c 0
 160 119 172 132 181 160 c 0
 183 168 184 170 184 188 c 0
 184 215 177 232 169 246 c 0
 163 256 163 257 162 262 c 0
EndSplineSet
Validated: 1
EndChar

StartChar: quotesingle
Encoding: 3 39 3
Width: 184
Flags: HMW
LayerCount: 2
Fore
SplineSet
57 684 m 0
 59 696 72 713 87 713 c 0
 104 713 120 696 121 680 c 0
 121 674 116 653 115 649 c 0
 114 646 109 615 109 609 c 0
 109 601 113 579 116 568 c 0
 122 546 133 523 148 496 c 0
 149 493 150 487 146 488 c 0
 138 489 106 517 93 535 c 0
 71 567 56 607 56 660 c 0
 56 667 56 676 57 684 c 0
EndSplineSet
Validated: 1
EndChar

StartChar: parenleft
Encoding: 4 40 4
Width: 307
Flags: HMW
LayerCount: 2
Fore
SplineSet
154 275 m 0
 165 275 173 284 173 292 c 0
 173 301 162 305 155 311 c 0
 148 317 145 324 145 333 c 0
 145 351 161 368 181 368 c 0
 201 368 222 353 230 337 c 0
 239 321 243 305 243 289 c 0
 243 272 237 256 226 244 c 0
 210 227 192 218 158 218 c 0
 133 218 127 220 115 228 c 0
 98 239 83 257 72 277 c 0
 61 297 56 323 56 354 c 0
 56 384 61 405 66 419 c 0
 88 477 145 523 204 546 c 0
 210 549 234 556 242 556 c 0
 247 556 253 553 253 550 c 0
 253 545 246 538 226 524 c 0
 203 507 182 490 169 476 c 0
 136 444 122 422 111 382 c 0
 108 370 106 357 106 343 c 0
 106 328 109 313 113 304 c 0
 118 293 136 275 154 275 c 0
EndSplineSet
Validated: 1
EndChar

StartChar: parenright
Encoding: 5 41 5
Width: 287
Flags: HMW
LayerCount: 2
Fore
SplineSet
73 242 m 0
 73 289 103 316 149 316 c 0
 153 316 156 316 160 316 c 0
 214 311 235 279 248 231 c 0
 250 223 250 221 250 203 c 0
 250 161 241 138 230 110 c 0
 229 108 219 92 213 84 c 0
 181 42 128 13 64 1 c 0
 56 -1 46 -2 37 -2 c 0
 25 -2 15 0 15 6 c 0
 15 7 16 7 16 8 c 0
 18 13 23 16 61 34 c 0
 105 56 127 70 151 94 c 0
 180 122 201 170 201 205 c 0
 201 216 200 225 196 232 c 0
 190 244 175 259 162 259 c 0
 157 259 152 257 148 253 c 0
 140 244 141 240 151 229 c 0
 161 219 164 215 164 205 c 0
 164 183 145 171 126 171 c 0
 124 171 121 172 119 172 c 0
 91 177 73 210 73 242 c 0
EndSplineSet
Validated: 1
EndChar

StartChar: plus
Encoding: 6 43 6
Width: 535
Flags: HMW
LayerCount: 2
Fore
SplineSet
254 690 m 0
 259 691 265 691 271 691 c 0
 308 691 350 680 377 663 c 0
 388 656 420 627 429 617 c 0
 460 580 485 523 490 476 c 0
 491 468 491 460 491 452 c 0
 491 413 483 363 467 314 c 0
 464 305 460 290 458 283 c 0
 456 276 451 262 448 253 c 0
 445 244 439 230 435 220 c 0
 421 184 394 131 380 113 c 0
 366 96 306 43 285 31 c 0
 278 26 269 22 259 17 c 0
 253 14 245 11 243 10 c 0
 236 7 228 5 215 5 c 0
 211 5 207 5 202 5 c 0
 178 8 167 12 150 28 c 0
 138 39 134 46 128 59 c 0
 126 62 122 70 119 76 c 0
 109 93 83 147 76 168 c 0
 65 200 59 227 54 268 c 0
 52 279 52 298 52 318 c 0
 52 339 52 360 54 373 c 0
 55 381 55 386 55 393 c 0
 55 404 54 419 50 459 c 0
 48 477 47 492 47 505 c 0
 47 521 48 533 51 543 c 0
 64 586 96 628 123 645 c 0
 126 646 136 651 144 657 c 0
 153 662 164 668 169 670 c 0
 183 677 213 685 233 688 c 0
 241 689 251 690 254 690 c 0
312 671 m 0
 308 672 299 673 287 673 c 0
 284 673 281 673 279 673 c 0
 206 673 155 654 110 608 c 0
 90 588 84 579 75 555 c 0
 66 535 63 521 63 500 c 0
 63 492 64 483 64 473 c 0
 66 455 67 444 69 444 c 0
 70 444 75 445 81 447 c 0
 88 449 99 450 110 450 c 0
 126 450 143 448 153 443 c 0
 159 441 170 425 176 414 c 0
 178 408 181 398 182 391 c 0
 182 386 183 380 183 372 c 0
 183 359 182 345 180 338 c 0
 177 327 169 271 169 265 c 0
 169 261 198 262 200 264 c 0
 201 265 202 288 203 314 c 0
 206 370 207 382 214 402 c 0
 225 433 230 439 252 446 c 0
 268 451 285 453 299 453 c 0
 319 453 335 449 345 440 c 0
 349 437 352 435 353 436 c 0
 354 436 354 444 353 454 c 0
 353 457 353 460 353 463 c 0
 353 478 356 489 365 507 c 0
 373 525 384 541 397 553 c 0
 409 564 417 569 424 569 c 0
 427 569 430 568 433 567 c 0
 438 563 439 563 439 566 c 0
 439 568 436 573 419 595 c 0
 390 633 368 650 328 664 c 0
 321 667 314 671 312 671 c 0
441 549 m 0
 433 557 430 559 425 559 c 0
 417 559 408 550 393 531 c 0
 374 505 368 488 368 458 c 0
 368 436 374 393 381 369 c 0
 384 358 385 345 385 331 c 0
 385 321 384 311 383 302 c 0
 381 295 380 285 378 279 c 0
 373 244 342 174 316 138 c 0
 307 125 282 75 277 59 c 0
 271 40 273 38 286 47 c 0
 296 55 328 83 354 106 c 24
 360 111 363 114 367 119 c 0
 372 124 382 148 392 167 c 0
 396 176 421 228 432 256 c 0
 435 264 440 278 444 286 c 0
 449 298 451 305 451 312 c 0
 451 318 449 323 445 331 c 0
 439 343 439 345 438 362 c 0
 438 372 438 383 438 385 c 0
 441 394 443 387 444 368 c 0
 446 349 448 343 453 341 c 0
 454 340 456 340 457 341 c 0
 460 345 470 410 471 434 c 0
 471 439 471 445 471 450 c 0
 471 497 461 530 441 549 c 0
133 435 m 0
 119 439 108 441 100 441 c 0
 72 441 70 418 68 377 c 0
 68 355 68 352 70 352 c 0
 75 352 83 364 87 378 c 0
 95 403 101 409 121 409 c 0
 122 409 124 409 126 409 c 0
 138 408 144 407 151 404 c 0
 162 399 163 400 158 411 c 0
 152 421 141 433 133 435 c 0
327 435 m 0
 320 437 309 439 296 439 c 0
 274 439 250 435 241 429 c 0
 235 424 228 409 221 387 c 0
 209 345 212 320 208 278 c 24
 207 269 206 260 209 255 c 0
 211 251 212 251 218 248 c 0
 226 245 234 239 236 258 c 0
 239 280 239 284 241 284 c 0
 242 284 242 277 243 268 c 0
 243 260 243 250 243 246 c 0
 243 237 240 232 229 227 c 0
 220 222 218 222 196 222 c 0
 174 222 171 222 165 226 c 0
 161 228 157 231 156 233 c 0
 155 235 154 240 154 246 c 0
 154 259 156 278 161 301 c 0
 162 311 163 317 162 318 c 0
 161 319 156 318 147 314 c 0
 139 310 130 309 122 309 c 0
 116 309 111 310 107 312 c 0
 99 316 90 328 86 339 c 0
 82 351 77 341 71 338 c 24
 68 336 66 333 66 329 c 24
 64 322 66 318 67 311 c 24
 71 281 72 262 79 235 c 0
 89 193 106 140 114 126 c 0
 154 53 161 43 172 36 c 0
 184 27 194 24 212 24 c 0
 215 24 218 24 222 25 c 0
 239 26 244 26 252 30 c 0
 260 34 261 35 263 41 c 0
 268 60 274 78 285 99 c 0
 297 121 302 129 327 171 c 0
 359 225 368 249 375 297 c 0
 376 306 376 313 375 319 c 0
 373 330 364 350 360 354 c 0
 357 357 356 356 348 345 c 0
 328 320 307 308 289 308 c 0
 271 308 255 322 249 350 c 0
 249 352 248 355 248 357 c 0
 248 371 255 388 266 399 c 0
 271 405 276 408 286 408 c 0
 291 408 296 407 302 406 c 0
 330 402 345 392 365 361 c 0
 370 353 376 344 377 342 c 0
 380 339 380 339 380 343 c 0
 380 347 366 389 361 402 c 0
 355 415 339 430 327 435 c 0
135 401 m 0
 129 403 123 404 118 404 c 0
 107 404 100 399 100 391 c 0
 100 387 100 387 110 390 c 0
 116 392 119 392 126 391 c 0
 139 388 152 381 157 375 c 0
 165 364 167 369 161 382 c 0
 157 390 146 398 135 401 c 0
315 398 m 0
 306 402 301 403 290 403 c 0
 283 403 276 402 275 402 c 0
 266 398 260 386 268 388 c 0
 271 388 277 390 283 392 c 0
 295 395 303 394 314 388 c 0
 321 384 337 370 341 362 c 0
 344 357 345 357 342 353 c 0
 340 350 336 348 330 346 c 0
 326 344 318 341 313 339 c 0
 308 336 304 335 298 335 c 0
 292 335 284 337 276 340 c 0
 264 344 263 344 263 341 c 0
 263 336 275 325 282 323 c 0
 284 322 287 322 290 322 c 0
 303 322 319 329 335 343 c 0
 349 354 349 355 349 361 c 0
 349 375 335 391 315 398 c 0
166 349 m 0
 166 351 166 352 166 352 c 0
 165 352 160 349 154 346 c 0
 148 342 138 339 132 338 c 0
 123 336 121 336 111 340 c 0
 97 344 94 344 96 340 c 0
 98 334 103 327 107 324 c 0
 110 322 116 321 121 321 c 0
 129 321 137 322 142 325 c 0
 151 330 166 345 166 349 c 0
199 255 m 0
 181 262 169 257 172 244 c 0
 172 239 183 237 200 237 c 0
 211 236 214 237 215 239 c 0
 216 243 208 251 199 255 c 0
248 148 m 0
 255 152 263 152 267 149 c 0
 271 145 270 144 265 138 c 0
 256 127 230 120 200 120 c 0
 197 120 193 120 190 120 c 0
 160 121 138 132 138 143 c 0
 138 144 138 145 138 146 c 0
 140 151 144 151 158 144 c 0
 170 138 182 135 197 135 c 0
 202 135 207 136 212 136 c 0
 229 138 238 141 248 148 c 0
EndSplineSet
Validated: 1
EndChar

StartChar: comma
Encoding: 7 44 7
Width: 307
Flags: HMW
LayerCount: 2
Fore
SplineSet
42 258 m 0
 47 267 57 275 71 275 c 0
 74 275 77 275 81 274 c 0
 87 272 96 263 99 255 c 0
 102 248 102 246 96 227 c 0
 93 213 93 212 93 192 c 0
 93 157 100 140 114 117 c 0
 139 75 175 58 218 36 c 0
 231 30 262 18 274 13 c 0
 281 11 286 6 286 3 c 0
 286 -3 275 -6 255 -6 c 0
 215 -6 164 11 132 28 c 0
 87 53 57 95 44 144 c 0
 40 163 36 184 36 208 c 0
 36 219 37 230 39 242 c 0
 40 249 42 256 42 258 c 0
EndSplineSet
Validated: 1
EndChar

StartChar: hyphen
Encoding: 8 45 8
Width: 543
Flags: HMW
LayerCount: 2
Fore
SplineSet
232 699 m 0
 244 701 258 702 271 702 c 0
 298 702 325 698 345 692 c 0
 409 670 459 607 483 543 c 0
 494 514 499 487 499 457 c 0
 499 442 498 426 495 408 c 0
 488 360 476 328 467 293 c 0
 462 276 451 245 445 230 c 0
 436 205 406 137 390 116 c 0
 369 88 315 41 287 25 c 0
 260 9 242 4 221 2 c 0
 216 2 211 2 207 2 c 0
 190 2 181 4 173 10 c 0
 157 22 144 33 140 39 c 0
 126 60 82 152 79 163 c 0
 71 190 59 224 54 270 c 0
 50 302 48 322 48 339 c 0
 48 350 49 360 50 370 c 0
 52 380 52 390 52 402 c 0
 52 419 51 441 48 477 c 0
 47 498 46 509 46 518 c 0
 46 524 46 529 47 534 c 0
 51 560 65 592 81 615 c 0
 98 638 121 654 144 667 c 0
 169 680 203 695 232 699 c 0
357 666 m 0
 333 678 323 682 282 683 c 0
 279 683 277 683 274 683 c 0
 204 683 158 664 111 618 c 0
 86 592 68 561 66 522 c 0
 66 519 66 516 66 513 c 0
 66 496 69 476 72 468 c 0
 79 452 93 442 147 416 c 0
 168 406 181 398 182 396 c 0
 184 392 185 382 185 371 c 0
 185 356 183 339 182 334 c 0
 178 320 171 281 171 273 c 0
 171 268 172 268 187 267 c 0
 197 267 203 268 204 269 c 0
 205 270 205 283 205 298 c 0
 206 313 206 336 207 350 c 0
 209 378 211 388 220 395 c 0
 229 403 263 419 294 429 c 0
 330 442 346 449 352 454 c 0
 354 456 356 460 357 466 c 0
 359 481 363 494 372 513 c 0
 392 555 411 575 431 575 c 0
 436 575 440 572 445 572 c 0
 446 572 446 573 446 574 c 0
 446 579 431 601 411 624 c 0
 396 640 373 658 357 666 c 0
449 559 m 0
 442 568 436 572 430 572 c 0
 424 572 418 568 410 559 c 0
 388 538 381 523 376 487 c 0
 374 474 373 463 373 452 c 0
 373 438 375 426 379 412 c 0
 389 380 393 358 393 341 c 0
 393 320 383 269 374 242 c 0
 366 218 340 166 325 144 c 0
 310 120 297 86 287 55 c 0
 285 49 291 52 303 62 c 0
 324 79 326 80 349 101 c 0
 367 118 370 122 382 144 c 0
 409 192 423 220 446 280 c 0
 453 298 456 307 456 315 c 0
 456 321 454 326 451 335 c 0
 446 346 443 363 443 377 c 0
 443 379 443 382 443 384 c 0
 444 394 446 401 449 399 c 0
 450 398 451 389 453 380 c 0
 456 352 460 343 464 354 c 0
 472 376 478 420 478 459 c 0
 478 477 477 493 474 506 c 0
 469 529 462 544 449 559 c 0
366 404 m 0
 362 422 363 434 347 425 c 0
 343 423 324 416 304 410 c 0
 264 398 237 387 230 380 c 0
 213 364 211 300 210 263 c 0
 210 258 214 256 219 254 c 0
 226 251 236 243 239 259 c 0
 242 271 245 273 247 265 c 0
 248 260 248 255 248 251 c 0
 248 229 232 224 201 224 c 0
 174 224 165 227 159 233 c 0
 157 236 156 239 156 245 c 0
 156 253 158 265 161 289 c 0
 163 302 164 314 164 316 c 0
 163 318 160 318 145 317 c 0
 142 317 139 317 137 317 c 0
 111 317 100 329 93 351 c 0
 88 370 88 370 85 369 c 0
 81 368 73 351 70 337 c 0
 69 331 68 326 68 320 c 0
 68 316 68 310 69 301 c 0
 73 265 73 264 89 204 c 0
 104 152 116 127 157 59 c 0
 166 45 179 33 190 30 c 0
 198 28 207 27 217 27 c 0
 232 27 247 29 254 33 c 0
 258 36 260 39 265 53 c 0
 274 78 280 89 313 145 c 0
 352 209 364 232 369 251 c 0
 375 276 377 270 378 308 c 0
 378 314 378 319 378 323 c 0
 378 348 375 358 369 367 c 0
 364 373 363 372 360 359 c 0
 355 337 344 327 321 322 c 0
 314 320 308 319 302 319 c 0
 288 319 279 324 267 337 c 0
 256 349 253 355 257 361 c 0
 260 365 301 388 325 399 c 0
 333 402 339 404 343 404 c 0
 350 404 355 399 363 387 c 0
 377 367 371 385 366 404 c 0
146 389 m 0
 142 394 93 422 78 422 c 0
 76 422 75 421 74 420 c 0
 73 418 73 412 73 405 c 0
 73 396 74 386 75 384 c 0
 79 378 92 399 100 399 c 0
 102 399 113 396 125 392 c 0
 150 383 153 382 146 389 c 0
349 376 m 0
 347 381 346 382 340 378 c 0
 328 370 315 367 297 358 c 0
 281 350 277 348 277 345 c 0
 277 336 291 329 312 329 c 0
 325 329 327 330 334 335 c 0
 344 343 350 356 350 367 c 0
 350 370 350 373 349 376 c 0
118 368 m 0
 98 375 98 375 99 364 c 0
 102 341 106 327 133 327 c 0
 150 327 159 332 159 342 c 0
 159 344 159 346 158 348 c 0
 155 353 143 359 118 368 c 0
215 248 m 0
 211 253 199 261 188 261 c 0
 184 261 180 260 177 257 c 0
 172 252 169 243 172 241 c 0
 173 239 187 238 199 238 c 0
 208 238 216 239 217 240 c 0
 220 242 220 242 215 248 c 0
186 190 m 0
 191 192 197 192 203 192 c 0
 211 192 219 191 224 189 c 0
 238 183 254 158 254 134 c 0
 254 118 252 114 244 114 c 0
 237 114 234 119 231 133 c 0
 227 151 218 171 202 171 c 0
 198 171 194 170 189 167 c 0
 179 162 173 153 169 136 c 0
 167 129 164 122 163 121 c 0
 156 113 150 122 150 139 c 0
 150 164 163 182 186 190 c 0
EndSplineSet
Validated: 1
EndChar

StartChar: period
Encoding: 9 46 9
Width: 164
Flags: HMW
LayerCount: 2
Fore
SplineSet
28 186 m 0
 39 202 49 207 77 207 c 0
 101 207 135 203 135 189 c 0
 135 185 134 182 133 180 c 0
 126 168 101 151 77 141 c 0
 68 137 63 137 59 137 c 0
 43 137 30 151 28 156 c 0
 26 160 26 160 26 171 c 0
 26 183 26 183 28 186 c 0
EndSplineSet
Validated: 1
EndChar

StartChar: zero
Encoding: 10 48 10
Width: 451
Flags: HMW
LayerCount: 2
Fore
SplineSet
422 415 m 0
 432 410 440 400 440 386 c 0
 440 375 437 361 435 352 c 0
 421 293 407 249 384 203 c 0
 357 149 340 120 299 96 c 0
 272 80 241 72 203 72 c 0
 151 72 117 99 88 136 c 0
 64 170 44 217 33 260 c 1
 32 263 25 290 25 303 c 0
 25 306 26 309 27 309 c 0
 32 309 45 261 51 249 c 1
 74 193 103 142 162 115 c 1
 170 112 191 108 206 108 c 0
 227 108 245 116 261 126 c 0
 287 143 317 180 334 222 c 0
 349 259 364 308 380 392 c 0
 383 408 398 417 408 418 c 1
 412 418 417 418 422 415 c 0
EndSplineSet
Validated: 1
EndChar

StartChar: five
Encoding: 15 53 15
Width: 451
Flags: HMW
LayerCount: 2
Fore
SplineSet
440 386 m 0
 440 362 421 273 384 203 c 0
 350 139 338 119 299 96 c 0
 272 80 242 72 203 72 c 0
 148 72 112 102 88 136 c 0
 59 177 40 228 29 280 c 0
 28 283 25 296 25 302 c 0
 25 306 26 309 28 309 c 0
 30 309 46 262 52 248 c 0
 66 216 77 192 97 167 c 0
 100 163 103 160 106 160 c 0
 107 160 108 161 110 162 c 0
 114 165 125 168 144 172 c 0
 190 182 287 200 313 200 c 0
 329 200 330 217 338 233 c 0
 348 253 370 336 377 376 c 1
 381 417 407 417 408 417 c 1
 426 417 440 404 440 386 c 0
257 148 m 0
 212 156 146 157 118 157 c 0
 112 157 109 156 109 154 c 0
 109 153 109 153 110 152 c 0
 126 133 152 118 168 113 c 0
 177 110 197 108 205 108 c 0
 225 108 252 118 269 132 c 0
 278 139 279 141 279 143 c 0
 279 147 267 146 257 148 c 0
EndSplineSet
Validated: 1
EndChar

StartChar: colon
Encoding: 20 58 20
Width: 164
Flags: HMW
LayerCount: 2
Fore
SplineSet
109 289 m 0
 115 289 129 286 129 261 c 0
 129 234 116 205 89 205 c 0
 77 205 65 212 58 224 c 0
 56 228 55 234 55 240 c 0
 55 247 55 252 62 260 c 0
 81 284 106 289 109 289 c 0
42 100 m 0
 51 110 72 121 89 121 c 0
 104 121 112 114 112 101 c 0
 112 97 111 92 110 87 c 0
 104 68 95 53 83 46 c 0
 79 44 78 44 67 44 c 0
 56 44 55 44 50 47 c 0
 38 54 33 65 33 77 c 0
 33 85 36 94 42 100 c 0
EndSplineSet
Validated: 1
EndChar

StartChar: semicolon
Encoding: 21 59 21
Width: 338
Flags: HMW
LayerCount: 2
Fore
SplineSet
218 231 m 0
 217 236 215 242 215 246 c 0
 215 264 228 275 245 275 c 0
 255 275 260 273 266 267 c 0
 276 257 278 249 278 208 c 0
 277 137 260 95 225 60 c 0
 211 46 196 37 185 29 c 0
 168 18 137 5 112 1 c 0
 99 -2 76 -6 60 -6 c 0
 47 -6 29 -5 29 3 c 0
 29 10 57 21 66 24 c 0
 106 38 151 60 178 87 c 0
 203 112 223 147 223 193 c 0
 223 206 221 220 218 231 c 0
217 18 m 0
 217 34 231 48 248 48 c 0
 267 48 292 18 292 0 c 0
 292 -6 290 -9 284 -13 c 0
 278 -17 273 -17 264 -17 c 0
 236 -17 217 -3 217 18 c 0
EndSplineSet
Validated: 1
EndChar

StartChar: equal
Encoding: 22 61 22
Width: 614
Flags: HMW
LayerCount: 2
Fore
SplineSet
512 353 m 0
 524 377 535 402 544 402 c 0
 553 402 554 377 554 364 c 0
 554 342 550 321 548 312 c 0
 545 297 529 270 517 254 c 0
 505 238 485 221 474 212 c 0
 458 200 439 193 411 193 c 0
 372 193 344 204 292 234 c 0
 275 243 253 256 230 256 c 0
 208 256 188 245 176 237 c 0
 140 214 118 184 100 133 c 0
 93 113 86 103 67 103 c 0
 49 103 37 119 37 134 c 0
 37 143 52 179 54 185 c 0
 76 250 157 318 232 318 c 0
 263 318 289 305 316 290 c 0
 361 265 381 258 410 258 c 0
 435 258 453 264 467 277 c 0
 479 289 487 302 512 353 c 0
519 200 m 0
 526 213 559 288 570 288 c 0
 576 288 579 275 579 263 c 0
 579 181 525 102 471 83 c 0
 457 78 444 76 432 76 c 0
 391 76 358 98 330 112 c 0
 312 122 285 141 256 141 c 0
 230 141 216 129 203 116 c 0
 180 94 159 54 146 19 c 0
 140 2 132 -12 114 -12 c 0
 99 -12 83 4 83 19 c 0
 83 28 87 37 92 49 c 0
 114 105 137 141 169 170 c 0
 192 190 219 203 258 203 c 0
 296 203 324 186 352 171 c 0
 374 157 406 143 437 143 c 0
 477 143 498 161 519 200 c 0
EndSplineSet
Validated: 1
EndChar

StartChar: question
Encoding: 23 63 23
Width: 328
Flags: HMW
LayerCount: 2
Fore
SplineSet
128 656 m 0
 134 658 148 659 159 659 c 0
 165 659 170 658 173 658 c 0
 178 657 196 649 204 644 c 0
 229 628 265 588 278 556 c 0
 281 549 282 543 282 538 c 0
 282 526 276 519 267 514 c 0
 262 511 259 511 254 510 c 0
 248 510 245 511 240 514 c 0
 228 519 218 531 207 550 c 0
 205 554 200 561 196 566 c 0
 183 582 174 589 159 594 c 0
 149 597 144 596 132 593 c 0
 108 584 94 560 94 527 c 0
 94 520 95 512 96 504 c 0
 103 467 114 446 157 379 c 0
 179 345 195 311 205 275 c 0
 210 256 213 229 213 201 c 0
 213 181 212 160 208 142 c 0
 202 113 187 41 139 41 c 0
 135 41 131 42 126 43 c 0
 103 49 93 64 91 93 c 0
 91 96 91 99 91 102 c 0
 91 117 93 126 101 144 c 0
 103 150 116 173 122 173 c 0
 123 173 124 172 125 170 c 0
 126 168 122 149 119 139 c 0
 118 134 118 129 118 120 c 0
 118 100 122 95 132 89 c 0
 135 87 138 86 141 86 c 0
 169 86 176 169 176 208 c 0
 176 256 162 289 144 321 c 0
 139 330 109 373 96 392 c 0
 70 430 41 471 41 529 c 0
 41 540 43 552 45 565 c 0
 52 601 69 628 96 644 c 0
 107 650 118 652 128 656 c 0
147 -4 m 0
 157 -2 171 -6 176 -12 c 0
 179 -15 180 -16 180 -22 c 0
 180 -42 159 -59 146 -66 c 0
 141 -68 139 -68 133 -68 c 0
 116 -67 104 -52 104 -37 c 0
 104 -30 107 -23 113 -17 c 0
 120 -9 124 -8 147 -4 c 0
EndSplineSet
Validated: 1
EndChar

StartChar: a
Encoding: 24 97 24
Width: 655
Flags: HMW
LayerCount: 2
Fore
SplineSet
290 582 m 0
 318 582 328 579 358 556 c 0
 406 520 479 466 529 428 c 0
 582 388 605 370 613 361 c 0
 625 349 632 330 632 311 c 0
 632 300 628 288 623 279 c 0
 589 224 488 74 443 37 c 1
 410 4 394 -7 371 -7 c 0
 331 -7 271 35 240 57 c 0
 185 97 91 175 44 224 c 0
 20 249 11 263 11 279 c 0
 11 290 14 297 24 315 c 0
 30 325 56 355 67 364 c 0
 70 367 75 368 81 368 c 0
 103 368 120 355 120 341 c 0
 120 329 115 326 105 313 c 0
 89 293 72 266 72 253 c 0
 72 248 74 245 80 240 c 0
 126 200 222 136 278 103 c 0
 300 90 346 61 368 61 c 0
 376 61 391 74 406 89 c 0
 442 125 540 247 574 313 c 0
 577 319 579 324 579 328 c 0
 579 334 574 339 561 351 c 0
 524 385 442 448 394 485 c 0
 381 496 378 497 362 510 c 0
 327 535 323 539 313 539 c 0
 300 539 290 536 279 531 c 0
 267 526 256 513 220 468 c 0
 208 453 204 447 204 445 c 0
 204 444 205 443 206 443 c 0
 208 443 211 443 216 445 c 0
 228 448 261 451 287 451 c 0
 309 451 323 450 332 438 c 0
 333 436 335 435 337 435 c 0
 339 435 342 438 347 440 c 0
 355 443 369 445 385 445 c 0
 400 445 417 443 430 440 c 0
 452 434 457 430 462 413 c 0
 467 397 470 363 470 328 c 0
 470 273 466 223 452 182 c 0
 445 161 437 156 415 149 c 0
 406 146 381 144 361 144 c 0
 319 144 258 151 229 159 c 1
 214 162 186 172 180 179 c 0
 169 192 164 210 164 256 c 0
 164 315 181 411 181 411 c 0
 181 413 180 413 180 413 c 0
 178 413 173 407 167 400 c 0
 145 373 131 360 125 360 c 0
 115 360 106 372 106 387 c 0
 106 392 109 396 121 412 c 0
 139 435 193 506 225 543 c 0
 248 570 260 582 290 582 c 0
341 421 m 0
 335 421 334 411 330 406 c 0
 327 401 326 398 326 396 c 0
 326 393 328 392 334 389 c 0
 351 381 369 369 388 353 c 0
 406 338 414 330 414 322 c 0
 414 314 406 307 399 307 c 0
 395 307 390 311 371 330 c 0
 349 353 335 367 325 367 c 0
 299 367 244 329 244 315 c 0
 244 309 247 303 254 293 c 0
 270 266 293 240 304 234 c 0
 308 233 310 232 312 232 c 0
 322 232 338 244 363 264 c 0
 371 270 384 282 391 282 c 0
 394 282 396 279 396 276 c 0
 396 267 385 252 366 232 c 0
 347 214 334 203 317 203 c 0
 308 203 299 206 289 211 c 0
 262 227 235 258 223 290 c 0
 221 297 219 303 219 310 c 0
 219 317 221 324 224 331 c 0
 234 351 254 370 281 385 c 0
 286 387 289 390 289 390 c 0
 289 396 262 405 245 405 c 0
 233 405 228 400 224 392 c 0
 221 387 215 364 215 359 c 0
 215 358 214 351 213 344 c 0
 211 331 209 305 209 284 c 0
 209 248 213 218 226 208 c 0
 239 198 276 192 320 192 c 0
 350 192 361 194 386 197 c 0
 416 202 421 212 426 248 c 0
 428 261 429 281 429 302 c 0
 429 330 427 361 425 379 c 0
 423 397 423 404 412 409 c 0
 405 412 388 416 367 417 c 0
 349 418 348 421 341 421 c 0
EndSplineSet
Validated: 1
EndChar

StartChar: b
Encoding: 25 98 25
Width: 492
Flags: HMW
LayerCount: 2
Fore
SplineSet
464 488 m 1
 465 488 467 487 467 484 c 0
 467 474 400 421 386 410 c 0
 322 357 255 307 189 257 c 0
 148 226 83 158 83 103 c 0
 83 76 101 53 122 53 c 0
 133 53 150 59 159 68 c 0
 163 72 164 75 164 82 c 0
 164 99 157 112 151 125 c 1
 144 141 134 144 134 162 c 0
 134 178 147 192 163 192 c 0
 181 192 188 182 199 166 c 0
 216 139 224 113 224 90 c 0
 224 43 187 4 125 4 c 0
 98 4 95 7 95 7 c 0
 51 19 26 60 26 105 c 0
 26 136 42 168 69 200 c 0
 106 243 143 282 209 328 c 0
 266 368 313 399 373 437 c 1
 397 453 456 487 464 488 c 1
EndSplineSet
Validated: 1
EndChar

StartChar: c
Encoding: 26 99 26
Width: 512
Flags: HMW
LayerCount: 2
Fore
SplineSet
196 576 m 0
 215 580 243 584 270 584 c 0
 286 584 302 582 316 578 c 0
 358 566 390 539 415 507 c 0
 440 475 462 428 466 397 c 0
 469 374 470 378 470 340 c 0
 470 294 466 269 462 252 c 0
 441 160 392 94 312 72 c 0
 298 68 265 64 239 64 c 0
 129 64 75 133 56 226 c 0
 53 242 41 288 41 329 c 0
 41 375 53 412 77 446 c 0
 81 452 98 470 111 479 c 0
 119 485 136 494 142 494 c 0
 145 494 147 493 147 491 c 0
 147 486 125 463 120 454 c 0
 100 425 87 383 87 335 c 0
 87 279 100 220 119 180 c 0
 129 162 146 140 150 140 c 0
 152 140 152 141 152 143 c 0
 152 146 149 151 148 156 c 0
 145 173 141 186 141 206 c 0
 141 233 145 261 152 278 c 0
 169 319 201 346 230 364 c 0
 238 369 240 375 242 376 c 0
 244 377 250 378 258 378 c 0
 286 378 306 373 334 354 c 0
 370 331 386 294 386 252 c 0
 386 222 377 188 362 156 c 0
 356 143 355 141 355 139 c 1
 356 139 356 139 360 142 c 1
 366 148 381 167 388 179 c 0
 415 229 430 269 430 340 c 0
 430 376 427 382 420 411 c 0
 407 461 367 505 332 525 c 0
 315 535 293 539 270 539 c 0
 246 539 220 534 196 525 c 0
 187 521 179 519 172 519 c 0
 158 519 146 531 146 543 c 0
 146 563 161 568 196 576 c 0
321 331 m 0
 311 339 292 352 278 352 c 0
 276 352 273 351 269 348 c 0
 232 319 200 296 188 252 c 0
 185 241 184 229 184 216 c 0
 184 193 188 169 195 155 c 0
 205 134 225 118 260 118 c 0
 313 118 352 189 352 258 c 0
 352 299 345 312 321 331 c 0
EndSplineSet
Validated: 1
EndChar

StartChar: e
Encoding: 28 101 28
Width: 307
Flags: HMW
LayerCount: 2
Fore
SplineSet
184 348 m 0
 184 328 166 315 148 315 c 0
 113 315 93 353 93 386 c 0
 93 396 97 422 110 436 c 0
 113 439 117 445 117 446 c 0
 117 448 115 451 113 454 c 0
 87 489 82 527 82 597 c 0
 82 611 83 614 88 620 c 0
 94 628 107 632 111 632 c 0
 123 632 139 621 139 610 c 0
 139 601 137 599 135 591 c 0
 131 574 125 547 125 524 c 0
 125 499 132 481 138 465 c 0
 140 460 141 458 146 458 c 0
 154 458 162 460 169 460 c 0
 217 460 239 438 252 414 c 0
 264 392 271 370 271 355 c 0
 271 334 268 304 264 291 c 0
 243 215 186 174 117 152 c 0
 98 146 74 142 57 142 c 0
 47 142 36 144 36 150 c 0
 36 161 83 173 140 211 c 0
 189 244 222 300 222 348 c 0
 222 355 221 360 220 365 c 0
 214 385 196 402 181 402 c 0
 173 402 163 393 163 386 c 0
 163 382 166 379 172 372 c 0
 182 361 184 358 184 348 c 0
EndSplineSet
Validated: 1
EndChar

StartChar: f
Encoding: 29 102 29
Width: 307
Flags: HMW
LayerCount: 2
Fore
SplineSet
263 624 m 0
 267 627 279 638 284 638 c 0
 285 638 287 637 287 635 c 0
 287 633 280 624 277 620 c 0
 246 579 196 524 163 487 c 0
 154 477 147 472 134 472 c 0
 128 472 121 474 114 481 c 0
 108 487 105 494 105 502 c 0
 105 516 111 523 129 533 c 0
 178 561 218 586 263 624 c 0
225 483 m 0
 230 487 240 495 243 495 c 0
 244 495 246 494 246 492 c 0
 246 491 243 486 238 479 c 0
 218 451 122 341 112 334 c 0
 107 331 97 328 94 328 c 0
 80 328 65 340 65 358 c 0
 65 378 74 382 87 389 c 0
 159 431 169 438 225 483 c 0
226 358 m 0
 229 360 232 362 233 362 c 0
 234 362 236 359 236 358 c 0
 236 356 220 335 201 312 c 0
 174 280 154 257 126 226 c 0
 106 203 99 195 83 195 c 0
 68 195 54 210 54 225 c 0
 54 230 56 237 59 242 c 0
 63 248 68 251 93 265 c 0
 137 290 178 319 226 358 c 0
171 204 m 0
 175 207 187 218 193 218 c 0
 194 218 195 217 195 216 c 0
 195 215 193 211 191 208 c 0
 169 177 69 60 57 55 c 0
 52 53 48 52 44 52 c 0
 26 52 13 67 13 83 c 0
 13 88 14 95 18 99 c 0
 22 103 22 104 37 113 c 0
 98 148 130 170 171 204 c 0
EndSplineSet
Validated: 1
EndChar

StartChar: g
Encoding: 30 103 30
Width: 389
Flags: HMW
LayerCount: 2
Fore
SplineSet
164 689 m 0
 164 698 167 702 185 710 c 0
 201 717 214 723 229 732 c 0
 241 739 256 749 265 756 c 0
 277 765 284 771 288 771 c 0
 290 771 291 770 291 768 c 0
 291 760 269 732 260 720 c 0
 248 704 217 664 208 656 c 0
 206 654 198 654 194 654 c 0
 184 654 164 672 164 689 c 0
271 613 m 0
 257 613 236 631 236 648 c 0
 236 662 242 662 262 672 c 0
 296 689 307 694 334 714 c 0
 338 717 356 731 359 731 c 0
 361 731 363 730 363 727 c 0
 363 726 362 723 356 714 c 0
 337 685 307 647 286 622 c 0
 281 616 274 613 271 613 c 0
125 477 m 0
 125 463 115 453 101 453 c 0
 90 453 87 456 76 471 c 0
 60 494 55 509 55 540 c 0
 55 577 59 592 68 603 c 0
 82 621 113 634 149 634 c 0
 210 634 256 603 256 541 c 0
 256 490 218 439 174 390 c 0
 137 349 105 320 87 254 c 0
 84 243 80 236 76 236 c 0
 71 236 68 245 68 257 c 0
 68 278 74 295 77 305 c 0
 87 339 110 372 160 429 c 0
 190 463 196 472 204 490 c 0
 210 504 211 519 211 531 c 0
 211 563 201 586 182 595 c 0
 175 598 166 600 155 600 c 0
 117 600 99 574 99 549 c 0
 99 526 105 513 116 497 c 0
 122 488 125 482 125 477 c 0
EndSplineSet
Validated: 1
EndChar

StartChar: h
Encoding: 31 104 31
Width: 451
Flags: HMW
LayerCount: 2
Fore
SplineSet
139 610 m 0
 149 648 160 686 169 720 c 0
 177 751 190 756 204 756 c 0
 220 756 233 740 233 726 c 0
 233 716 226 699 221 684 c 0
 188 584 143 458 106 356 c 0
 99 336 81 294 73 274 c 0
 69 265 60 248 58 248 c 0
 55 248 55 252 55 256 c 0
 55 263 57 276 58 279 c 0
 62 303 66 319 72 345 c 0
 93 438 114 517 139 610 c 0
282 739 m 0
 298 739 313 728 313 707 c 0
 313 697 302 658 297 636 c 0
 266 509 236 384 202 262 c 0
 196 241 173 155 166 155 c 0
 164 155 163 158 163 165 c 0
 163 200 180 301 187 344 c 0
 203 440 219 531 236 625 c 0
 241 652 242 658 249 696 c 0
 254 723 262 739 282 739 c 0
333 698 m 0
 334 709 350 722 363 722 c 0
 380 722 394 706 394 693 c 0
 394 682 391 672 390 664 c 0
 372 546 352 424 331 310 c 0
 321 256 316 231 309 208 c 0
 308 203 304 196 301 196 c 0
 299 196 298 202 298 205 c 0
 298 228 299 280 300 290 c 0
 306 390 314 493 323 592 c 0
 326 626 329 665 333 698 c 0
EndSplineSet
Validated: 1
EndChar

StartChar: i
Encoding: 32 105 32
Width: 246
Flags: HMW
LayerCount: 2
Fore
SplineSet
42 837 m 0
 42 871 73 893 111 893 c 0
 128 893 150 888 166 879 c 0
 194 863 210 831 210 812 c 0
 210 809 210 806 210 800 c 0
 210 782 210 780 207 772 c 0
 198 747 179 730 158 723 c 0
 146 719 134 718 121 718 c 0
 105 718 95 720 92 723 c 0
 91 724 82 732 82 741 c 0
 82 748 87 756 94 759 c 0
 98 761 103 761 115 763 c 0
 139 766 145 767 152 774 c 0
 161 783 167 796 167 808 c 0
 167 814 165 825 158 832 c 0
 148 842 130 854 113 854 c 0
 94 854 80 846 80 821 c 0
 80 816 82 798 85 786 c 0
 88 774 88 769 88 768 c 0
 88 764 87 762 84 762 c 0
 82 762 78 763 73 767 c 0
 60 778 42 809 42 837 c 0
123 675 m 0
 135 675 143 669 143 657 c 0
 143 646 128 612 123 597 c 0
 111 564 101 519 97 488 c 0
 88 417 76 343 67 264 c 0
 65 245 60 197 46 197 c 0
 36 197 36 211 36 226 c 0
 36 243 38 288 39 334 c 0
 41 471 47 530 59 588 c 0
 68 630 68 641 80 653 c 0
 91 664 104 675 123 675 c 0
EndSplineSet
Validated: 1
EndChar

StartChar: j
Encoding: 33 106 33
Width: 492
Flags: HMW
LayerCount: 2
Fore
SplineSet
460 860 m 0
 461 864 466 878 470 875 c 0
 471 874 471 871 471 867 c 0
 471 854 467 830 466 823 c 0
 458 774 453 751 444 706 c 0
 432 650 422 598 408 542 c 0
 399 502 394 473 383 428 c 0
 375 398 370 368 362 338 c 0
 349 295 338 255 322 214 c 0
 307 171 281 108 262 83 c 0
 248 65 230 41 210 21 c 0
 176 -13 137 -41 102 -55 c 0
 89 -60 79 -63 72 -63 c 0
 63 -63 57 -60 51 -53 c 0
 44 -46 42 -38 42 -27 c 0
 42 -7 54 4 69 8 c 0
 88 14 109 27 124 36 c 0
 161 60 208 114 226 146 c 0
 235 162 264 230 282 289 c 0
 315 396 347 507 380 616 c 0
 390 650 398 673 408 708 c 0
 420 751 430 782 446 826 c 0
 451 838 454 847 460 860 c 0
EndSplineSet
Validated: 1
EndChar

StartChar: k
Encoding: 34 107 34
Width: 348
Flags: HMW
LayerCount: 2
Fore
SplineSet
269 419 m 0
 286 419 300 404 300 390 c 0
 300 372 288 364 279 359 c 0
 268 353 255 335 229 292 c 0
 223 282 218 269 218 256 c 0
 218 234 232 202 238 190 c 0
 255 157 300 64 315 4 c 0
 317 -4 318 -9 318 -14 c 0
 318 -19 316 -23 313 -23 c 0
 309 -23 305 -20 291 -5 c 0
 271 17 208 102 177 175 c 0
 174 182 173 185 171 185 c 0
 169 185 166 180 163 174 c 0
 142 133 109 81 82 43 c 0
 71 28 53 3 43 3 c 0
 39 3 39 9 39 14 c 0
 39 32 54 72 57 83 c 0
 87 179 147 268 194 342 c 0
 226 392 251 419 269 419 c 0
EndSplineSet
Validated: 1
EndChar

StartChar: l
Encoding: 35 108 35
Width: 573
Flags: HMW
LayerCount: 2
Fore
SplineSet
525 705 m 0
 529 710 534 714 535 714 c 0
 536 714 537 712 537 710 c 0
 537 702 527 683 524 676 c 0
 486 599 455 551 387 488 c 0
 371 473 331 441 331 437 c 0
 331 435 334 434 337 433 c 0
 369 422 403 408 433 397 c 0
 473 382 480 373 480 360 c 0
 480 345 460 334 449 324 c 0
 376 261 380 264 316 210 c 0
 298 195 282 181 282 179 c 0
 282 176 325 135 340 123 c 0
 358 109 378 101 403 101 c 0
 423 101 441 106 453 116 c 0
 478 137 494 162 513 196 c 0
 521 211 528 222 532 222 c 0
 533 222 535 220 535 218 c 0
 535 210 526 183 512 158 c 0
 488 114 465 86 431 69 c 0
 421 64 388 61 375 61 c 0
 364 61 333 62 299 82 c 0
 275 96 236 136 220 149 c 0
 210 157 198 166 170 166 c 0
 138 166 107 159 91 146 c 0
 83 139 76 137 69 137 c 0
 52 137 39 150 39 167 c 0
 39 186 55 197 68 205 c 0
 90 219 135 228 172 228 c 0
 192 228 208 225 221 220 c 0
 223 219 225 218 227 218 c 0
 229 218 232 219 238 224 c 0
 266 247 290 267 328 299 c 0
 371 336 386 350 386 353 c 0
 386 364 277 386 262 390 c 0
 247 394 230 394 230 414 c 0
 230 427 248 442 286 472 c 0
 408 566 422 575 512 689 c 0
 515 693 523 703 525 705 c 0
EndSplineSet
Validated: 1
EndChar

StartChar: m
Encoding: 36 109 36
Width: 369
Flags: HMW
LayerCount: 2
Fore
SplineSet
63 785 m 0
 72 785 81 775 101 756 c 0
 128 731 147 724 170 724 c 0
 205 724 248 738 279 746 c 0
 294 750 298 751 306 751 c 0
 321 751 321 744 321 743 c 0
 321 728 279 702 220 680 c 0
 205 675 176 668 152 668 c 0
 109 668 66 701 49 734 c 0
 46 740 42 754 42 760 c 0
 42 769 53 785 63 785 c 0
198 74 m 0
 229 74 242 70 258 65 c 0
 303 50 337 27 348 9 c 0
 351 4 354 -3 354 -9 c 0
 354 -21 345 -30 335 -30 c 0
 327 -30 318 -25 290 -10 c 0
 255 9 232 18 197 18 c 0
 163 18 122 9 98 -3 c 0
 92 -6 73 -14 65 -14 c 0
 59 -14 54 -11 54 -6 c 0
 54 7 84 32 122 52 c 0
 141 62 170 74 198 74 c 0
EndSplineSet
Validated: 1
EndChar

StartChar: n
Encoding: 37 110 37
Width: 369
Flags: HMW
LayerCount: 2
Fore
SplineSet
42 350 m 0
 42 358 52 376 63 376 c 0
 68 376 76 370 92 354 c 0
 119 328 137 315 165 315 c 0
 205 315 223 321 228 322 c 0
 264 331 288 341 306 341 c 0
 318 341 321 338 321 333 c 0
 321 314 261 285 215 269 c 0
 203 265 189 264 189 260 c 0
 189 256 201 252 206 249 c 0
 229 236 237 223 237 213 c 0
 237 199 222 184 202 175 c 0
 196 172 192 170 192 169 c 0
 192 166 204 164 215 162 c 0
 256 154 332 119 333 83 c 0
 333 72 325 61 315 61 c 0
 309 61 301 65 278 77 c 0
 245 96 215 109 173 109 c 0
 130 109 99 98 64 83 c 0
 57 80 48 77 43 77 c 0
 37 77 33 81 33 85 c 0
 33 102 82 138 126 154 c 0
 131 156 139 158 139 161 c 0
 139 165 134 165 128 169 c 0
 116 176 103 190 103 213 c 0
 103 233 111 242 121 252 c 0
 125 256 127 258 127 260 c 0
 127 262 120 264 117 265 c 0
 93 274 64 297 52 319 c 0
 47 328 42 343 42 350 c 0
EndSplineSet
Validated: 1
EndChar

StartChar: o
Encoding: 38 111 38
Width: 410
Flags: HMW
LayerCount: 2
Fore
SplineSet
114 531 m 0
 114 539 120 551 132 556 c 0
 160 569 204 576 232 576 c 0
 274 576 296 563 321 538 c 0
 342 517 350 494 360 445 c 0
 364 426 365 404 365 385 c 0
 365 302 336 237 287 200 c 0
 263 182 219 168 184 168 c 0
 160 168 134 174 113 185 c 0
 60 213 27 269 27 347 c 0
 27 373 29 379 30 387 c 0
 36 431 65 470 97 486 c 0
 107 491 116 493 121 493 c 0
 126 493 128 491 128 489 c 0
 128 484 120 476 112 468 c 0
 79 434 59 412 59 362 c 0
 59 306 76 259 113 228 c 0
 131 213 151 203 184 203 c 0
 243 203 274 233 298 271 c 0
 315 298 332 355 332 398 c 0
 332 420 327 449 320 466 c 0
 306 500 274 534 230 534 c 0
 196 534 187 526 170 520 c 0
 162 517 149 507 139 507 c 0
 129 507 114 518 114 531 c 0
EndSplineSet
Validated: 1
EndChar

StartChar: p
Encoding: 39 112 39
Width: 369
Flags: HMW
LayerCount: 2
Fore
SplineSet
248 658 m 0
 216 658 180 644 180 616 c 0
 180 581 183 582 202 551 c 0
 210 539 213 532 213 526 c 0
 213 509 198 499 183 499 c 0
 176 499 169 502 162 517 c 0
 143 555 132 557 127 583 c 0
 124 598 124 589 124 637 c 0
 124 656 139 671 164 684 c 0
 182 693 210 699 233 699 c 0
 290 699 339 675 356 635 c 0
 360 625 362 612 362 603 c 0
 362 591 356 549 349 530 c 0
 322 455 277 404 225 348 c 0
 154 271 129 231 83 150 c 0
 74 134 62 113 60 110 c 0
 56 104 52 100 49 100 c 0
 46 100 45 103 45 107 c 0
 45 120 55 149 67 177 c 0
 104 261 131 308 176 375 c 0
 209 424 267 463 294 526 c 0
 300 540 306 569 306 590 c 0
 306 608 302 630 292 642 c 0
 283 654 269 658 248 658 c 0
EndSplineSet
Validated: 1
EndChar

StartChar: q
Encoding: 40 113 40
Width: 451
Flags: HMW
LayerCount: 2
Fore
SplineSet
159 554 m 0
 154 569 148 586 148 596 c 0
 148 600 148 604 152 604 c 0
 155 604 160 600 161 599 c 0
 173 589 188 571 202 553 c 0
 205 549 209 543 213 543 c 0
 215 543 219 545 224 547 c 0
 239 554 251 557 265 557 c 0
 272 557 279 556 284 552 c 0
 290 547 295 539 295 530 c 0
 295 514 286 505 256 491 c 0
 252 489 246 486 246 482 c 0
 246 477 252 459 252 446 c 0
 252 431 249 421 242 413 c 0
 231 401 216 398 213 398 c 0
 206 398 195 404 195 415 c 0
 195 416 194 426 194 432 c 0
 194 446 193 454 190 454 c 0
 180 454 146 418 135 394 c 0
 113 346 92 282 92 235 c 0
 92 174 130 126 193 126 c 0
 219 126 227 130 238 135 c 0
 281 155 320 219 335 266 c 0
 344 295 347 334 347 374 c 0
 347 392 345 445 341 476 c 0
 340 482 337 517 337 522 c 0
 337 531 338 537 340 537 c 0
 350 537 369 475 372 463 c 0
 381 430 389 392 389 331 c 0
 389 296 382 267 379 254 c 0
 368 211 351 177 332 150 c 0
 299 103 256 72 190 72 c 0
 141 72 99 92 78 115 c 0
 51 143 37 187 37 240 c 0
 37 288 43 311 56 354 c 0
 75 415 112 466 159 505 c 0
 166 511 171 514 171 520 c 0
 171 530 164 540 159 554 c 0
EndSplineSet
Validated: 1
EndChar

StartChar: r
Encoding: 41 114 41
Width: 573
Flags: HMW
LayerCount: 2
Fore
SplineSet
362 706 m 0
 379 713 397 716 414 716 c 0
 449 716 482 702 506 678 c 0
 522 661 540 630 540 599 c 0
 540 593 539 587 538 581 c 0
 528 533 474 471 446 427 c 0
 437 413 427 397 425 381 c 0
 418 341 410 276 410 219 c 0
 410 190 412 163 418 142 c 0
 427 107 444 61 455 30 c 0
 459 18 462 10 467 -4 c 0
 469 -10 471 -17 471 -18 c 0
 471 -22 469 -24 466 -24 c 0
 453 -20 409 25 389 57 c 0
 371 84 367 92 358 120 c 0
 351 147 349 157 348 198 c 0
 348 224 349 229 351 241 c 0
 353 256 353 264 351 264 c 0
 350 264 344 256 338 246 c 0
 311 206 275 159 254 136 c 0
 208 89 143 55 66 41 c 0
 63 40 56 40 50 40 c 0
 34 40 28 45 35 51 c 0
 39 55 44 58 68 70 c 0
 112 92 120 97 148 114 c 0
 199 146 244 190 273 242 c 0
 293 277 325 354 348 392 c 0
 364 419 376 436 397 461 c 0
 428 499 455 534 465 551 c 0
 476 569 480 582 480 594 c 0
 480 599 479 603 478 608 c 0
 469 633 450 653 416 653 c 0
 416 653 415 653 414 653 c 0
 387 653 370 643 361 628 c 0
 358 623 357 618 357 613 c 0
 357 595 372 578 381 570 c 0
 391 561 397 550 397 540 c 0
 397 539 397 539 397 538 c 0
 395 524 383 511 369 511 c 0
 368 511 368 511 367 511 c 0
 356 511 350 514 337 528 c 0
 318 547 306 566 300 588 c 0
 297 598 297 599 296 616 c 0
 296 645 303 655 316 671 c 0
 327 686 343 698 362 706 c 0
EndSplineSet
Validated: 1
EndChar

StartChar: s
Encoding: 42 115 42
Width: 410
Flags: HMW
LayerCount: 2
Fore
SplineSet
220 718 m 0
 220 737 235 747 250 747 c 0
 262 747 266 744 274 736 c 0
 304 706 360 621 374 568 c 0
 378 550 383 535 383 511 c 0
 383 446 346 403 299 382 c 0
 206 340 158 346 139 334 c 0
 132 330 106 301 106 262 c 0
 106 246 110 230 116 213 c 0
 126 182 148 145 171 102 c 0
 185 76 201 54 201 44 c 0
 201 41 199 40 198 40 c 0
 187 40 149 82 116 128 c 0
 97 154 76 190 66 214 c 0
 54 242 48 268 48 284 c 0
 48 325 82 370 118 389 c 0
 164 413 177 399 250 428 c 0
 278 439 321 462 321 507 c 0
 321 550 299 593 284 618 c 0
 260 657 242 677 224 702 c 0
 221 707 220 708 220 718 c 0
EndSplineSet
Validated: 1
EndChar

StartChar: t
Encoding: 43 116 43
Width: 348
Flags: HMW
LayerCount: 2
Fore
SplineSet
61 271 m 0
 61 277 62 281 64 281 c 0
 65 281 67 279 68 277 c 0
 73 269 77 255 82 242 c 0
 88 225 100 190 107 170 c 0
 115 146 137 117 141 117 c 0
 141 117 143 117 143 128 c 0
 143 169 143 186 145 224 c 0
 147 256 160 392 175 472 c 0
 176 478 179 483 181 483 c 0
 183 483 184 477 184 450 c 0
 184 348 179 298 179 200 c 0
 179 165 180 132 182 108 c 0
 183 94 184 79 186 79 c 0
 188 79 195 97 197 103 c 0
 205 122 212 131 251 191 c 0
 274 226 298 258 299 258 c 0
 300 258 301 257 301 255 c 0
 301 249 292 227 290 222 c 0
 268 167 243 97 211 48 c 0
 209 45 206 40 206 38 c 0
 206 36 210 34 217 32 c 0
 229 28 248 26 251 26 c 0
 256 26 267 26 293 45 c 0
 316 62 327 70 333 70 c 0
 336 70 338 69 338 63 c 0
 338 52 326 29 321 23 c 0
 306 5 291 -6 260 -6 c 0
 218 -6 207 8 173 13 c 0
 159 15 143 20 121 20 c 0
 92 20 68 0 40 0 c 0
 33 0 27 3 21 11 c 0
 15 20 12 30 12 35 c 0
 12 49 20 60 26 69 c 0
 31 76 40 76 51 76 c 0
 90 76 114 67 123 67 c 0
 125 67 125 68 125 69 c 0
 125 73 108 102 92 134 c 0
 72 175 61 263 61 271 c 0
EndSplineSet
Validated: 1
EndChar

StartChar: u
Encoding: 44 117 44
Width: 614
Flags: HMW
LayerCount: 2
Fore
SplineSet
287 672 m 0
 292 681 302 694 323 694 c 0
 349 694 367 671 383 638 c 0
 404 593 438 496 448 442 c 0
 451 425 453 368 453 365 c 0
 453 355 452 350 448 350 c 0
 437 350 414 410 406 428 c 0
 380 488 363 534 336 596 c 0
 333 602 331 608 328 608 c 0
 321 608 294 532 286 509 c 0
 272 470 243 389 243 383 c 0
 243 380 245 378 253 377 c 0
 273 374 297 361 334 341 c 0
 367 323 382 321 390 321 c 0
 394 321 407 322 423 325 c 0
 468 332 485 335 508 375 c 0
 528 410 532 463 542 463 c 0
 552 463 552 449 552 426 c 0
 552 372 541 347 511 309 c 0
 500 295 480 273 443 259 c 0
 428 254 415 252 402 252 c 0
 368 252 336 269 304 287 c 0
 259 312 247 317 228 317 c 0
 195 317 145 285 124 251 c 0
 114 235 104 213 96 188 c 0
 90 170 76 164 65 164 c 0
 51 164 36 178 36 195 c 0
 36 210 56 262 76 290 c 0
 107 334 149 355 166 364 c 0
 174 368 174 373 188 408 c 0
 223 493 282 664 287 672 c 0
332 160 m 0
 314 170 279 194 247 194 c 0
 226 194 194 178 172 159 c 0
 139 131 129 98 118 69 c 0
 108 44 95 41 86 41 c 0
 70 41 57 54 57 72 c 0
 57 83 58 84 71 119 c 0
 86 159 120 205 162 228 c 0
 195 246 222 257 251 257 c 0
 318 257 356 199 412 199 c 0
 423 199 438 201 464 206 c 0
 522 217 533 251 548 305 c 0
 554 327 557 340 563 340 c 0
 571 340 573 324 573 308 c 0
 573 272 570 266 568 256 c 0
 563 227 532 178 498 154 c 0
 476 138 451 129 423 129 c 0
 389 129 355 147 332 160 c 0
EndSplineSet
Validated: 1
EndChar

StartChar: v
Encoding: 45 118 45
Width: 635
Flags: HMW
LayerCount: 2
Fore
SplineSet
245 607 m 0
 253 639 262 684 297 684 c 0
 334 684 356 643 383 577 c 0
 421 485 454 369 478 245 c 0
 481 229 487 211 492 211 c 0
 498 211 510 225 526 240 c 0
 562 274 574 285 582 285 c 0
 586 285 588 284 588 280 c 0
 588 275 581 257 579 253 c 0
 553 197 521 141 487 92 c 0
 481 83 472 74 469 74 c 0
 464 74 460 85 455 101 c 0
 442 145 429 194 420 234 c 0
 396 345 362 470 317 574 c 0
 308 594 303 602 300 602 c 0
 293 602 282 555 256 474 c 0
 210 330 165 210 110 73 c 0
 100 47 94 15 66 15 c 0
 49 15 36 32 36 47 c 0
 36 64 85 162 110 218 c 0
 169 350 211 466 245 607 c 0
EndSplineSet
Validated: 1
EndChar

StartChar: w
Encoding: 46 119 46
Width: 696
VWidth: 1104
Flags: HMW
LayerCount: 2
Fore
SplineSet
106 67 m 0
 119 81 148 94 174 94 c 0
 191 94 199 91 226 80 c 0
 257 65 267 61 278 57 c 0
 298 50 303 49 312 49 c 0
 320 49 329 51 346 57 c 0
 359 62 360 63 388 71 c 0
 401 75 409 77 419 77 c 0
 428 77 436 75 445 71 c 0
 471 61 494 44 520 36 c 0
 526 34 527 34 541 34 c 0
 551 34 560 34 569 40 c 0
 584 50 588 53 608 74 c 0
 611 77 615 83 618 83 c 0
 618 83 619 83 619 81 c 0
 619 77 612 65 611 63 c 0
 594 37 570 8 548 1 c 0
 542 -1 540 -1 529 -1 c 0
 505 -1 480 8 462 15 c 0
 446 21 433 25 424 25 c 0
 419 25 408 21 391 16 c 0
 344 1 326 -4 305 -4 c 0
 300 -4 295 -3 290 -3 c 0
 246 0 222 14 199 14 c 0
 193 14 176 7 165 2 c 0
 158 -1 157 -3 138 -3 c 0
 130 -3 123 -2 120 -1 c 0
 111 2 96 18 96 44 c 0
 96 53 99 60 106 67 c 0
EndSplineSet
Validated: 1
EndChar

StartChar: x
Encoding: 47 120 47
Width: 246
Flags: HMW
LayerCount: 2
Fore
SplineSet
53 303 m 0
 53 318 67 334 84 334 c 0
 97 334 109 322 112 314 c 0
 121 291 128 271 140 247 c 0
 142 243 145 234 148 234 c 0
 153 234 162 242 180 256 c 0
 202 273 211 280 212 280 c 0
 214 280 215 278 215 277 c 0
 215 271 202 256 180 229 c 0
 171 218 162 208 162 205 c 0
 162 202 166 197 185 163 c 0
 193 149 199 138 199 136 c 0
 199 135 198 134 197 134 c 0
 192 134 177 151 166 162 c 0
 164 164 153 176 152 177 c 0
 149 181 146 183 144 183 c 0
 138 183 135 176 122 162 c 0
 84 121 82 114 64 114 c 0
 46 114 34 126 34 144 c 0
 34 161 42 165 62 177 c 0
 98 198 118 210 118 213 c 0
 118 216 92 246 80 260 c 0
 58 286 53 293 53 303 c 0
EndSplineSet
Validated: 1
EndChar

StartChar: y
Encoding: 48 121 48
Width: 410
Flags: HMW
LayerCount: 2
Fore
SplineSet
194 498 m 0
 200 507 217 530 232 530 c 0
 248 530 262 501 275 474 c 0
 295 432 317 360 335 301 c 0
 336 297 341 280 346 280 c 0
 352 280 370 297 378 311 c 0
 382 317 386 325 389 325 c 0
 391 325 392 324 392 322 c 0
 392 318 385 297 380 288 c 0
 367 267 344 249 332 249 c 0
 326 249 326 250 321 258 c 0
 312 274 311 277 303 295 c 0
 284 339 267 382 246 435 c 0
 244 439 237 463 233 463 c 0
 230 463 226 457 215 443 c 0
 196 417 188 407 163 350 c 0
 145 308 113 253 97 243 c 0
 92 240 86 238 77 238 c 0
 54 238 41 255 41 266 c 0
 41 272 46 281 60 293 c 0
 131 357 125 370 156 427 c 0
 172 457 179 477 194 498 c 0
200 176 m 0
 203 207 200 223 224 223 c 0
 235 223 251 216 251 203 c 0
 251 193 242 161 238 145 c 0
 233 126 209 30 194 -14 c 0
 190 -26 183 -41 182 -41 c 0
 181 -41 180 -36 180 -29 c 0
 180 -26 188 54 189 63 c 0
 193 104 196 135 200 176 c 0
136 181 m 0
 139 183 145 185 152 185 c 0
 155 185 180 183 180 172 c 0
 180 168 171 147 154 112 c 0
 133 68 116 36 109 36 c 0
 105 36 105 41 105 44 c 0
 105 66 112 94 118 120 c 0
 127 159 132 179 136 181 c 0
292 171 m 0
 302 171 321 167 321 155 c 0
 321 153 320 151 317 130 c 0
 313 106 302 45 294 12 c 0
 292 3 286 -14 284 -14 c 0
 279 -14 279 17 276 78 c 0
 275 102 272 156 272 157 c 0
 272 167 284 171 292 171 c 0
EndSplineSet
Validated: 1
EndChar

StartChar: z
Encoding: 49 122 49
Width: 594
Flags: HMW
LayerCount: 2
Fore
SplineSet
528 718 m 0
 529 719 535 732 540 732 c 0
 541 732 542 731 542 729 c 0
 542 721 527 668 518 647 c 0
 499 600 488 576 453 526 c 0
 432 496 390 449 367 425 c 0
 349 406 334 392 334 389 c 0
 334 387 338 386 353 381 c 0
 383 371 429 356 461 346 c 0
 474 342 482 335 482 324 c 0
 482 306 469 293 451 277 c 0
 400 231 345 184 290 134 c 0
 267 113 262 110 251 110 c 0
 233 110 219 123 219 139 c 0
 219 154 230 163 243 174 c 0
 292 216 343 255 377 295 c 0
 381 300 383 303 383 305 c 0
 383 316 350 325 296 338 c 0
 256 348 235 344 235 366 c 0
 235 379 248 393 259 401 c 0
 394 508 438 554 528 718 c 0
366 630 m 0
 370 636 374 638 376 638 c 0
 377 638 378 637 378 635 c 0
 378 634 375 625 373 620 c 0
 346 555 307 482 234 413 c 0
 220 399 177 359 177 354 c 0
 177 351 199 345 204 343 c 0
 228 336 259 324 282 318 c 0
 321 307 326 289 326 285 c 0
 326 271 315 263 248 205 c 0
 215 176 164 129 127 97 c 0
 110 83 103 75 90 75 c 0
 75 75 60 86 60 105 c 0
 60 126 73 131 109 162 c 0
 135 185 160 207 184 228 c 0
 207 248 232 270 232 275 c 0
 232 285 135 303 121 307 c 0
 105 312 75 310 75 331 c 0
 75 343 83 351 84 352 c 0
 112 380 196 445 221 465 c 0
 272 507 322 575 366 630 c 0
EndSplineSet
Validated: 1
EndChar

StartChar: accent_dot
Encoding: 50 -1 50
Width: 451
Flags: W
HStem: 172 94<187.034 243.469>
VStem: 170 84<180.762 226.722>
LayerCount: 2
Fore
SplineSet
173 227 m 0
 179 239 208 266 231 266 c 0
 246 266 254 255 254 238 c 0
 254 233 253 227 252 220 c 0
 248 197 238 182 224 176 c 0
 219 173 213 172 208 172 c 0
 189 172 170 187 170 211 c 0
 170 219 170 221 173 227 c 0
EndSplineSet
Validated: 1
EndChar

StartChar: accent_slash
Encoding: 51 -1 51
Width: 451
Flags: W
HStem: 175 166
VStem: 137 181
LayerCount: 2
Fore
SplineSet
273 310 m 0
 278 314 311 341 315 341 c 0
 317 341 318 339 318 338 c 0
 318 335 313 328 302 314 c 0
 278 284 198 192 183 180 c 0
 178 176 171 175 166 175 c 0
 148 175 137 189 137 205 c 0
 137 222 142 226 162 237 c 0
 211 265 241 285 273 310 c 0
EndSplineSet
Validated: 1
EndChar

StartChar: accent_doubleslash
Encoding: 52 -1 52
Width: 492
Flags: W
HStem: 304 176
VStem: 100 231
LayerCount: 2
Fore
SplineSet
276 469 m 0
 283 472 301 480 310 480 c 0
 312 480 314 480 314 478 c 0
 314 475 300 463 292 458 c 0
 239 422 202 400 152 367 c 0
 128 352 127 351 122 351 c 0
 115 351 111 353 106 359 c 0
 102 363 100 366 100 370 c 0
 100 374 103 379 110 385 c 0
 119 394 126 398 157 414 c 0
 218 445 236 452 276 469 c 0
305 438 m 0
 309 440 323 447 329 447 c 0
 330 447 331 446 331 445 c 0
 331 444 330 442 329 441 c 0
 318 428 300 415 263 387 c 0
 234 365 185 329 164 313 c 0
 156 307 151 304 146 304 c 0
 135 304 125 314 125 322 c 0
 125 333 140 347 172 365 c 0
 198 381 223 396 253 412 c 0
 269 420 287 431 305 438 c 0
EndSplineSet
Validated: 1
EndChar

